HIERARCHY
ROOT ui
{
	 OFFSET 0 0 0
	 CHANNELS 3 XPosition YPosition Z Position
	 EndSite
	 {
	 OFFSET 0 -1 0
	 }
}
ROOT li
{
	 OFFSET 0 0 0
	 CHANNELS 3 XPosition YPosition Z Position
	 EndSite
	 {
	 OFFSET 0 -1 0
	 }
}
ROOT ul
{
	 OFFSET 0 0 0
	 CHANNELS 3 XPosition YPosition Z Position
	 EndSite
	 {
	 OFFSET 0 -1 0
	 }
}
ROOT ll
{
	 OFFSET 0 0 0
	 CHANNELS 3 XPosition YPosition Z Position
	 EndSite
	 {
	 OFFSET 0 -1 0
	 }
}
ROOT tt
{
	 OFFSET 0 0 0
	 CHANNELS 3 XPosition YPosition Z Position
	 EndSite
	 {
	 OFFSET 0 -1 0
	 }
}
ROOT tb
{
	 OFFSET 0 0 0
	 CHANNELS 3 XPosition YPosition Z Position
	 EndSite
	 {
	 OFFSET 0 -1 0
	 }
}
ROOT td
{
	 OFFSET 0 0 0
	 CHANNELS 3 XPosition YPosition Z Position
	 EndSite
	 {
	 OFFSET 0 -1 0
	 }
}
ROOT v
{
	 OFFSET 0 0 0
	 CHANNELS 3 XPosition YPosition Z Position
	 EndSite
	 {
	 OFFSET 0 -1 0
	 }
}
ROOT bn
{
	 OFFSET 0 0 0
	 CHANNELS 3 XPosition YPosition Z Position
	 EndSite
	 {
	 OFFSET 0 -1 0
	 }
}
MOTION
Frames: 10
Frame Time: 0.002
0.020736438751220703	-0.0014636739492416382	0		0.4459755859375	-2.38496533203125	0		-0.9193646850585937	0.39631878662109377	0		-0.4399680480957031	-2.694915283203125	0		1.748113525390625	-0.38208584594726563	0		3.16649072265625	0.11922341918945313	0		4.42085546875	0.300557861328125	0		5.97527197265625	0.6232722778320312	0		-0.3372290344238281	5.9234736328125	0		
-0.05625952911376953	3.815310001373291E-4	0		0.42011907958984374	-2.382731689453125	0		-0.9184010009765625	0.3961416931152344	0		-0.5057297668457031	-2.68623291015625	0		1.7448714599609374	-0.4020650329589844	0		3.189318603515625	0.10699796295166016	0		4.42266259765625	0.2876627502441406	0		5.9759697265625	0.6236250610351562	0		-0.3166328430175781	5.918080078125	0		
0.022626642227172852	-0.00169754695892334	0		0.4382327575683594	-2.3770283203125	0		-0.9225682373046875	0.39204180908203123	0		-0.46768698120117186	-2.68782958984375	0		1.7226148681640625	-0.41678897094726564	0		3.192919677734375	0.08303512573242187	0		4.42030322265625	0.26784439086914064	0		5.97295556640625	0.6068381958007812	0		-0.3350152587890625	5.9221875	0		
0.023443614959716797	-0.001785593032836914	0		0.39717959594726565	-2.37757421875	0		-0.916725341796875	0.3958365173339844	0		-0.49559967041015623	-2.678589599609375	0		1.7194071044921875	-0.42072793579101564	0		3.170856689453125	0.09341542053222657	0		4.41010546875	0.26814932250976564	0		5.97718701171875	0.6244841918945313	0		-0.33454495239257814	5.92207861328125	0		
0.01731321144104004	0.010235223770141601	0		0.4481739807128906	-2.36723046875	0		-0.9160271606445313	0.39571640014648435	0		-0.5005340576171875	-2.663612060546875	0		1.7130439453125	-0.4296046142578125	0		3.187178955078125	0.06134461975097656	0		4.42165087890625	0.25521217346191405	0		5.991951171875	0.6228358154296875	0		-0.3493094482421875	5.911177734375	0		
-0.062089599609375	0.00917441177368164	0		0.3840723266601562	-2.355449462890625	0		-0.915434814453125	0.395622314453125	0		-0.49975698852539063	-2.66368115234375	0		1.72145361328125	-0.44863623046875	0		3.18065771484375	0.050584529876708986	0		4.40817919921875	0.2496116943359375	0		5.98874169921875	0.6079360961914062	0		-0.19584165954589844	5.92724853515625	0		
0.025282470703125	-0.0018959579467773438	0		0.438652099609375	-2.361091796875	0		-0.9149584350585938	0.39555596923828124	0		-0.4990936279296875	-2.663721923828125	0		1.6888382568359375	-0.46013961791992186	0		3.148950927734375	0.0341585807800293	0		4.4115185546875	0.23783522033691407	0		5.981265625	0.6122471313476563	0		-0.3299486999511719	5.90785595703125	0		
-0.05536954879760742	-0.0038968160152435304	0		0.38524014282226565	-2.355394287109375	0		-0.9146046142578125	0.3955179138183594	0		-0.4965273132324219	-2.6617587890625	0		1.70088134765625	-0.49016012573242185	0		3.147121826171875	0.017396282196044922	0		4.4057978515625	0.23119830322265625	0		5.98570556640625	0.5920367431640625	0		-0.3781484375	5.89043505859375	0		
0.025914499282836914	-0.0018274400234222412	0		0.4235283508300781	-2.36477978515625	0		-0.9034965209960938	0.38537689208984377	0		-0.5140958251953125	-2.66052587890625	0		1.68509423828125	-0.4958150634765625	0		3.16298828125	-0.014552210807800293	0		4.39672509765625	0.2056278076171875	0		5.98953271484375	0.6099577026367188	0		-0.36116400146484373	5.89825390625	0		
-0.04296209335327148	-0.0019240059852600098	0		0.40292666625976564	-2.354426513671875	0		-0.8902474975585938	0.39724069213867186	0		-0.4747911071777344	-2.6599482421875	0		1.7200733642578125	-0.5110517272949219	0		3.15327587890625	-0.0011607439517974853	0		4.3929267578125	0.21302456665039063	0		5.98179248046875	0.6144255981445312	0		-0.1950649871826172	5.92531982421875	0		
